<svg width="16" height="16" viewBox="0 0 16 16" fill="none" xmlns="http://www.w3.org/2000/svg">
<g clip-path="url(#clip0_60_3917)">
<path d="M7.10112 2.16744C7.05625 2.12644 7.01044 2.08541 6.96303 2.04438C6.04028 1.24544 4.43559 0.293068 2.03125 0.293068C1.77237 0.293068 1.5625 0.502943 1.5625 0.761818V1.09701C3.90922 1.22535 5.85094 1.74079 7.10112 2.16744Z" fill="#EEEEEE"/>
<path d="M10.292 1.70938C11.6104 1.36882 13.0008 1.16282 14.4381 1.09354V0.761818C14.4381 0.502943 14.2282 0.293068 13.9693 0.293068C11.565 0.293068 9.96034 1.24544 9.03759 2.04438C9.01294 2.06572 8.98881 2.08707 8.96484 2.10841C9.34591 1.97654 9.78912 1.83929 10.292 1.70938Z" fill="#EEEEEE"/>
<path d="M15.5312 2.00498C11.4516 2.00498 8.77275 3.13695 8 3.51042V3.51951C7.21494 3.16908 4.31706 2.00498 0.46875 2.00498C0.209875 2.00498 0 2.21486 0 2.47373V13.6763C0 13.9352 0.209875 14.145 0.46875 14.145C4.66244 14.145 7.74734 15.637 7.79213 15.6589C7.85781 15.6914 7.92897 15.7075 7.99997 15.7075H8C8.01028 15.7075 8.02056 15.7072 8.03084 15.7065C8.03416 15.7063 8.03747 15.7058 8.04078 15.7055C8.04775 15.705 8.05472 15.7043 8.06166 15.7034C8.06556 15.7029 8.06947 15.7022 8.07337 15.7015C8.07966 15.7005 8.08594 15.6995 8.09219 15.6983C8.09638 15.6974 8.10053 15.6964 8.10469 15.6955C8.11063 15.6941 8.11653 15.6927 8.12241 15.6911C8.12669 15.69 8.13094 15.6887 8.13519 15.6874C8.14091 15.6857 8.14656 15.6839 8.15222 15.682C8.1565 15.6805 8.16078 15.6789 8.16503 15.6773C8.17056 15.6753 8.17603 15.673 8.1815 15.6708C8.18578 15.669 8.19003 15.6671 8.19428 15.6652C8.19966 15.6628 8.20494 15.6602 8.21025 15.6575C8.21441 15.6554 8.21856 15.6533 8.22269 15.6511C8.22425 15.6503 8.22584 15.6495 8.22741 15.6487C8.2545 15.6336 10.99 14.145 15.5312 14.145C15.7901 14.145 16 13.9352 16 13.6763V2.47373C16 2.21483 15.7901 2.00498 15.5312 2.00498ZM1.85947 4.43283C1.85947 4.30114 1.91484 4.17551 2.01209 4.0867C2.10931 3.99789 2.23925 3.95411 2.37059 3.96598C3.73178 4.08954 5.03644 4.34314 6.24825 4.71976C6.44428 4.7807 6.57788 4.96211 6.57788 5.16739V7.04239C6.57788 7.19139 6.50703 7.33148 6.38709 7.41986C6.30559 7.47989 6.20794 7.51114 6.10913 7.51114C6.0625 7.51114 6.01562 7.5042 5.97003 7.49001C4.82103 7.13292 3.5815 6.89223 2.28584 6.77461C2.04438 6.7527 1.85947 6.55023 1.85947 6.3078V4.43283ZM6.55678 12.8065C6.49434 13.0074 6.30916 13.1363 6.10928 13.1363C6.06319 13.1363 6.01634 13.1294 5.97003 13.115C4.82103 12.7579 3.5815 12.5172 2.28584 12.3996C2.02803 12.3762 1.83797 12.1482 1.86137 11.8904C1.88478 11.6326 2.11294 11.4425 2.37056 11.466C3.73175 11.5895 5.03641 11.8431 6.24822 12.2197C6.4955 12.2966 6.63363 12.5593 6.55678 12.8065ZM6.55678 10.9315C6.49434 11.1324 6.30916 11.2613 6.10928 11.2613C6.06319 11.2613 6.01634 11.2544 5.97003 11.24C4.82103 10.8829 3.5815 10.6422 2.28584 10.5246C2.02803 10.5012 1.83797 10.2732 1.86137 10.0154C1.88478 9.75758 2.11294 9.56751 2.37056 9.59095C3.73175 9.71451 5.03641 9.96811 6.24822 10.3447C6.4955 10.4216 6.63363 10.6843 6.55678 10.9315ZM6.55678 9.05651C6.49434 9.25742 6.30916 9.38626 6.10928 9.38626C6.06319 9.38626 6.01634 9.37942 5.97003 9.36501C4.82103 9.00792 3.5815 8.76723 2.28584 8.64961C2.02803 8.6262 1.83797 8.39823 1.86137 8.14042C1.88478 7.88258 2.11294 7.69233 2.37056 7.71595C3.73175 7.83951 5.03641 8.09311 6.24822 8.46973C6.4955 8.54661 6.63363 8.8093 6.55678 9.05651ZM13.6985 12.3997C12.4029 12.5173 11.1634 12.758 10.0143 13.1151C9.96803 13.1295 9.92116 13.1363 9.87506 13.1363C9.67519 13.1363 9.49003 13.0075 9.42759 12.8066C9.35078 12.5594 9.48888 12.2967 9.73612 12.2198C10.948 11.8432 12.2526 11.5896 13.6138 11.466C13.8714 11.4426 14.0996 11.6327 14.123 11.8905C14.1464 12.1483 13.9564 12.3763 13.6985 12.3997ZM13.6985 10.5247C12.4029 10.6423 11.1634 10.883 10.0143 11.2401C9.96803 11.2545 9.92116 11.2613 9.87506 11.2613C9.67519 11.2613 9.49003 11.1325 9.42759 10.9316C9.35078 10.6844 9.48888 10.4217 9.73612 10.3448C10.948 9.9682 12.2526 9.71461 13.6138 9.59105C13.8714 9.56751 14.0996 9.75767 14.123 10.0155C14.1464 10.2733 13.9564 10.5013 13.6985 10.5247ZM13.6985 8.64967C12.4029 8.7673 11.1634 9.00798 10.0143 9.36508C9.96803 9.37945 9.92116 9.38633 9.87506 9.38633C9.67519 9.38633 9.49003 9.25748 9.42759 9.05658C9.35078 8.80936 9.48888 8.54667 9.73612 8.46983C10.948 8.0932 12.2526 7.83961 13.6138 7.71604C13.8714 7.69264 14.0996 7.88267 14.123 8.14051C14.1464 8.39826 13.9564 8.62626 13.6985 8.64967ZM13.6985 6.77464C12.4029 6.89226 11.1634 7.13295 10.0143 7.49005C9.96803 7.50442 9.92116 7.51129 9.87506 7.51129C9.67519 7.51129 9.49003 7.38245 9.42759 7.18154C9.35078 6.93433 9.48888 6.67164 9.73612 6.59479C10.948 6.21817 12.2526 5.96458 13.6138 5.84101C13.8714 5.81745 14.0996 6.00761 14.123 6.26548C14.1464 6.52326 13.9564 6.75123 13.6985 6.77464ZM13.6985 4.89964C12.4029 5.01726 11.1634 5.25795 10.0143 5.61504C9.96803 5.62942 9.92116 5.6363 9.87506 5.6363C9.67519 5.6363 9.49003 5.50745 9.42759 5.30655C9.35078 5.05933 9.48888 4.79664 9.73612 4.71979C10.948 4.34317 12.2526 4.08958 13.6138 3.96601C13.8714 3.94258 14.0996 4.13264 14.123 4.39048C14.1464 4.64826 13.9564 4.87623 13.6985 4.89964Z" fill="#EEEEEE"/>
</g>
<defs>
<clipPath id="clip0_60_3917">
<rect width="16" height="16" fill="white"/>
</clipPath>
</defs>
</svg>
