<svg width="16" height="16" viewBox="0 0 16 16" fill="none" xmlns="http://www.w3.org/2000/svg">
<g clip-path="url(#clip0_60_3901)">
<path d="M11.6874 7.55444C11.4789 5.8535 10.1365 4.51444 8.43501 4.31028C8.28851 4.29356 8.1412 4.28519 7.99373 4.28516C6.49004 4.28747 5.13611 5.19622 4.56429 6.58694C3.99248 7.97766 4.31564 9.57597 5.38283 10.6353C5.95033 11.1788 6.27533 11.9277 6.28461 12.7134V13.1426H9.71317V12.7112C9.71576 11.9404 10.0294 11.2032 10.5829 10.6667C11.419 9.86006 11.8279 8.70778 11.6874 7.55456V7.55444H11.6874Z" fill="#EEEEEE"/>
<path d="M7.99956 16C8.36269 15.9996 8.68628 15.7708 8.80775 15.4286H7.19141C7.31284 15.7708 7.63644 15.9996 7.99956 16Z" fill="#EEEEEE"/>
<path d="M6.57031 14.571C6.57053 14.7287 6.69831 14.8565 6.85603 14.8567H9.14175C9.29947 14.8565 9.42725 14.7287 9.42747 14.571V13.7139H6.57031V14.571Z" fill="#EEEEEE"/>
<path d="M7.99917 2.57144C8.31477 2.57144 8.57061 2.31559 8.57061 2V0.571437C8.57061 0.255844 8.31477 0 7.99917 0C7.68358 0 7.42773 0.255844 7.42773 0.571437V2C7.42773 2.31559 7.68358 2.57144 7.99917 2.57144Z" fill="#EEEEEE"/>
<path d="M3.17747 3.98563C3.40359 4.20159 3.75953 4.20159 3.98566 3.98563C4.09284 3.87847 4.15306 3.73309 4.15306 3.58153C4.15306 3.42997 4.09284 3.28459 3.98566 3.17744L2.97544 2.16741C2.86831 2.06022 2.72297 2 2.57144 2C2.41991 2 2.27456 2.06022 2.16741 2.16741C2.06022 2.27453 2 2.41988 2 2.57144C2 2.723 2.06022 2.86831 2.16741 2.97547L3.17747 3.98563Z" fill="#EEEEEE"/>
<path d="M2.57144 8C2.57144 7.68441 2.31559 7.42856 2 7.42856H0.571437C0.255969 7.42887 0.0003125 7.68453 0 8C0.0003125 8.31547 0.255969 8.57112 0.571437 8.57144H2C2.31559 8.57144 2.57144 8.31559 2.57144 8Z" fill="#EEEEEE"/>
<path d="M3.72984 11.8661C3.53234 11.8133 3.32172 11.87 3.17744 12.0149L2.16741 13.025C2.06022 13.1322 2 13.2775 2 13.4291C2 13.5806 2.06022 13.7259 2.16741 13.8331C2.39347 14.0491 2.74937 14.0491 2.97544 13.8331L3.98563 12.8231C4.13044 12.6788 4.18719 12.4682 4.13441 12.2707C4.08162 12.0732 3.92734 11.9189 3.72984 11.8661Z" fill="#EEEEEE"/>
<path d="M12.822 12.0148C12.6778 11.87 12.4671 11.8133 12.2696 11.8661C12.0721 11.9188 11.9179 12.0731 11.8651 12.2706C11.8123 12.4681 11.869 12.6787 12.0139 12.823L13.0241 13.833C13.2501 14.049 13.606 14.049 13.8321 13.833C13.9393 13.7259 13.9995 13.5806 13.9995 13.429C13.9995 13.2774 13.9393 13.1321 13.8321 13.025L12.822 12.0148Z" fill="#EEEEEE"/>
<path d="M15.4277 7.42856H13.9992C13.6836 7.42856 13.4277 7.68441 13.4277 8C13.4277 8.31559 13.6836 8.57144 13.9992 8.57144H15.4277C15.7433 8.57144 15.9992 8.31559 15.9992 8C15.9992 7.68441 15.7433 7.42856 15.4277 7.42856Z" fill="#EEEEEE"/>
<path d="M12.8233 3.98562L13.8333 2.97544C13.9777 2.83109 14.034 2.62072 13.9812 2.42353C13.9283 2.22634 13.7743 2.07234 13.5772 2.0195C13.38 1.96666 13.1696 2.02303 13.0252 2.16737L12.0151 3.17741C11.9079 3.28456 11.8477 3.42994 11.8477 3.5815C11.8477 3.73306 11.9079 3.87844 12.0151 3.98559C12.2412 4.20159 12.5972 4.20159 12.8233 3.98562Z" fill="#EEEEEE"/>
</g>
<defs>
<clipPath id="clip0_60_3901">
<rect width="16" height="16" fill="white"/>
</clipPath>
</defs>
</svg>
